HIERARCHY
ROOT Hips
{
	OFFSET -0.001795 -0.223333 0.028219
	CHANNELS 6 Xposition Yposition Zposition Zrotation Yrotation Xrotation 
	JOINT LeftUpLeg
	{
		OFFSET 0.069520 -0.091406 -0.006815
		CHANNELS 3 Zrotation Yrotation Xrotation
		JOINT LeftLeg
		{
			OFFSET 0.034277 -0.375199 -0.004496
			CHANNELS 3 Zrotation Yrotation Xrotation
			JOINT LeftFoot
			{
				OFFSET -0.013596 -0.397961 -0.043693
				CHANNELS 3 Zrotation Yrotation Xrotation
				JOINT LeftToe
				{
					OFFSET 0.026358 -0.055791 0.119288
					CHANNELS 3 Zrotation Yrotation Xrotation
					End Site
					{
						OFFSET 0.000000 0.000000 0.000000
					}
				}
			}
		}
	}
	JOINT RightUpLeg
	{
		OFFSET -0.067670 -0.090522 -0.004320
		CHANNELS 3 Zrotation Yrotation Xrotation
		JOINT RightLeg
		{
			OFFSET -0.038290 -0.382569 -0.008850
			CHANNELS 3 Zrotation Yrotation Xrotation
			JOINT RightFoot
			{
				OFFSET 0.015774 -0.398415 -0.042312
				CHANNELS 3 Zrotation Yrotation Xrotation
				JOINT RightToe
				{
					OFFSET -0.025372 -0.048144 0.123348
					CHANNELS 3 Zrotation Yrotation Xrotation
					End Site
					{
						OFFSET 0.000000 0.000000 0.000000
					}
				}
			}
		}
	}
	JOINT Spine
	{
		OFFSET -0.002533 0.108963 -0.026696
		CHANNELS 3 Zrotation Yrotation Xrotation
		JOINT Spine1
		{
			OFFSET 0.005487 0.135180 0.001092
			CHANNELS 3 Zrotation Yrotation Xrotation
			JOINT Spine2
			{
				OFFSET 0.001457 0.052922 0.025425
				CHANNELS 3 Zrotation Yrotation Xrotation
				JOINT Neck
				{
					OFFSET -0.002778 0.213870 -0.042857
					CHANNELS 3 Zrotation Yrotation Xrotation
					JOINT Head
					{
						OFFSET 0.005152 0.064970 0.051349
						CHANNELS 3 Zrotation Yrotation Xrotation
						End Site
						{
							OFFSET 0.000000 0.000000 0.000000
						}
					}
				}
				JOINT LeftShoulder
				{
					OFFSET 0.078845 0.121749 -0.034090
					CHANNELS 3 Zrotation Yrotation Xrotation
					JOINT LeftArm
					{
						OFFSET 0.090977 0.030469 -0.008868
						CHANNELS 3 Zrotation Yrotation Xrotation
						JOINT LeftForeArm
						{
							OFFSET 0.259612 -0.012772 -0.027456
							CHANNELS 3 Zrotation Yrotation Xrotation
							JOINT LeftHand
							{
								OFFSET 0.249234 0.008986 -0.001171
								CHANNELS 3 Zrotation Yrotation Xrotation
								End Site
								{
									OFFSET 0.000000 0.000000 0.000000
								}
							}
						}
					}
				}
				JOINT RightShoulder
				{
					OFFSET -0.081759 0.118833 -0.038615
					CHANNELS 3 Zrotation Yrotation Xrotation
					JOINT RightArm
					{
						OFFSET -0.096012 0.032551 -0.009143
						CHANNELS 3 Zrotation Yrotation Xrotation
						JOINT RightForeArm
						{
							OFFSET -0.253742 -0.013329 -0.021401
							CHANNELS 3 Zrotation Yrotation Xrotation
							JOINT RightHand
							{
								OFFSET -0.255298 0.007772 -0.005559
								CHANNELS 3 Zrotation Yrotation Xrotation
								End Site
								{
									OFFSET 0.000000 0.000000 0.000000
								}
							}
						}
					}
				}
			}
		}
	}
}
MOTION
Frames: 6
Frame Time: 0.050000
-0.023561 0.921308 -0.052478 -0.779012 -0.495587 16.082760 4.259983 -1.569973 -26.814467 -3.969042 0.434736 6.923536 4.856266 11.699181 6.604574 0.000000 0.000000 0.000000 -2.693722 2.429437 -29.072455 -1.093653 0.665828 11.137206 -0.900359 -5.271020 7.053720 0.000000 0.000000 0.000000 3.553914 -1.501662 17.359245 1.017633 -0.183357 -7.821053 -7.019833 5.444532 11.699978 13.806742 -2.996335 -33.384307 0.000000 0.000000 0.000000 -2.926005 -19.774259 6.875251 -66.242326 -43.041928 17.295347 11.819809 -48.197148 -3.370877 0.000000 0.000000 0.000000 5.444122 9.452877 4.177946 75.672285 34.091017 18.325326 7.825977 60.136031 9.052892 0.000000 0.000000 0.000000 
-0.024199 0.921492 -0.053085 -0.792476 -0.610255 16.150716 4.195659 -1.578536 -26.900016 -3.739698 0.398064 6.907011 4.887014 11.769943 6.738967 0.000000 0.000000 0.000000 -2.532646 2.485822 -29.271720 -1.298044 0.714871 11.262026 -0.836120 -5.179222 7.147532 0.000000 0.000000 0.000000 3.513530 -1.467608 17.059236 1.004692 -0.180328 -7.799758 -7.199078 5.281424 11.817295 13.644513 -2.974116 -33.281791 0.000000 0.000000 0.000000 -2.940768 -20.157287 7.044213 -66.430783 -43.459904 17.698610 14.647283 -47.939497 -4.559017 0.000000 0.000000 0.000000 5.887185 9.548171 4.239976 75.964426 34.143011 18.383999 6.143417 60.720554 8.188820 0.000000 0.000000 0.000000 
-0.024537 0.921558 -0.053178 -0.720458 -0.761651 16.170394 4.071807 -1.594626 -26.949421 -3.617361 0.380140 6.981109 4.942395 11.872314 6.815080 0.000000 0.000000 0.000000 -2.619733 2.489184 -29.389416 -1.250879 0.714131 11.382230 -0.783597 -5.078893 7.142974 0.000000 0.000000 0.000000 3.471662 -1.435003 16.797913 0.919411 -0.146659 -7.912219 -7.421613 5.012802 11.916189 13.300334 -2.874022 -33.224626 0.000000 0.000000 0.000000 -3.074154 -20.364148 7.164252 -66.703370 -44.123483 18.341256 16.705661 -47.081076 -5.299730 0.000000 0.000000 0.000000 6.189161 9.522040 4.221700 76.464815 34.067762 18.411757 5.346601 61.000827 7.743404 0.000000 0.000000 0.000000 
-0.024756 0.921600 -0.052774 -0.649109 -0.799483 16.173028 3.993181 -1.608878 -26.980484 -3.591573 0.376396 7.086173 4.954879 11.895068 6.831751 0.000000 0.000000 0.000000 -2.709282 2.490440 -29.597676 -1.203924 0.726509 11.788445 -0.790393 -5.083787 7.104590 0.000000 0.000000 0.000000 3.456505 -1.402942 16.419132 0.882518 -0.129610 -8.025433 -7.549925 4.887472 12.111102 13.185755 -2.852782 -33.213543 0.000000 0.000000 0.000000 -3.306486 -20.704337 7.325364 -67.126994 -44.337994 18.681513 18.583881 -46.671085 -6.020964 0.000000 0.000000 0.000000 6.734929 9.575018 4.277014 76.620000 34.136250 18.429918 4.422890 60.761552 7.166700 0.000000 0.000000 0.000000 
-0.025048 0.921575 -0.052041 -0.669256 -0.911585 16.035729 3.899872 -1.615514 -26.922017 -3.375929 0.341322 7.379817 5.016774 11.978548 6.719258 0.000000 0.000000 0.000000 -2.706396 2.496058 -29.560650 -1.110906 0.723009 12.049920 -0.766155 -5.005522 7.005415 0.000000 0.000000 0.000000 3.500879 -1.390100 16.169362 0.921889 -0.156012 -7.741864 -7.655968 4.863100 11.912737 13.082736 -2.838225 -33.046321 0.000000 0.000000 0.000000 -3.704328 -20.744225 7.368864 -67.509772 -44.432043 18.943075 19.446539 -46.396629 -6.350384 0.000000 0.000000 0.000000 6.997470 9.960125 4.462531 76.807387 34.376172 18.675980 3.131260 60.246206 6.312592 0.000000 0.000000 0.000000 
-0.025554 0.921424 -0.051202 -0.699595 -0.843910 16.042879 3.877326 -1.624810 -26.938869 -3.221540 0.313398 7.494545 5.003945 11.941109 6.596133 0.000000 0.000000 0.000000 -2.777134 2.494061 -29.768592 -0.860453 0.693438 12.518983 -0.828315 -5.102366 6.914903 0.000000 0.000000 0.000000 3.603673 -1.400560 15.996975 0.857015 -0.134721 -7.614871 -7.682185 4.807232 11.822808 13.126224 -2.887313 -32.884859 0.000000 0.000000 0.000000 -3.887927 -20.904505 7.445509 -67.797924 -44.575853 19.185850 20.384817 -46.181141 -6.715322 0.000000 0.000000 0.000000 7.331816 10.172344 4.585245 77.125260 34.916685 19.220088 2.223498 59.643258 5.702241 0.000000 0.000000 0.000000 
